<svg width="1152" height="202" viewBox="0 0 1152 202" fill="none" xmlns="http://www.w3.org/2000/svg">
<path d="M162.967 0H35.1938C15.7568 0 0 15.9932 0 35.7217V165.412C0 185.14 15.7568 201.133 35.1938 201.133H162.967C182.404 201.133 198.161 185.14 198.161 165.412V35.7217C198.161 15.9932 182.404 0 162.967 0Z" fill="#232B37"/>
<path d="M59.8737 76.0056C64.7695 70.9956 70.3476 66.5558 76.4874 62.2383C42.056 67.9407 24.5996 103.418 44.825 133.519C41.4942 110.668 42.658 92.6242 59.8737 76.0056Z" fill="#E4A5BF"/>
<path d="M138.448 123.783C133.833 128.916 128.496 133.478 122.436 137.795C154.781 132.744 173.481 94.5788 154.099 66.5146C157.469 88.6727 153.938 107.409 138.448 123.783Z" fill="#94AAC7"/>
<path d="M112.083 54.7436C130.623 63.4195 138.087 88.1437 127.653 105.984C122.797 114.823 113.808 121.299 103.455 121.707C92.9006 122.236 80.9017 116.086 79.0558 104.64C77.8117 126.146 106.264 134.619 122.276 125.21C154.7 107.328 150.286 57.88 116.818 43.8275C116.818 43.8275 116.818 43.8275 116.818 43.8683C87.2423 31.5673 47.3131 46.7195 37.1602 78.2459C52.0484 53.6846 86.7607 43.1758 112.123 54.7436H112.083Z" fill="#E3D4B3"/>
<path d="M86.1588 146.39C67.7793 137.755 60.2349 113.356 70.3477 95.516C75.0428 86.6772 83.8714 80.0379 94.1045 79.3862C104.659 78.6938 116.336 84.0704 119.145 95.4753C119.145 74.4577 91.0948 66.5557 75.3237 76.2906C43.5409 94.5792 48.2361 143.376 81.3833 157.306C81.3833 157.306 81.3833 157.306 81.3833 157.265C110.959 169.566 150.888 154.414 161.041 122.888C146.153 147.449 111.441 157.958 86.1187 146.39H86.1588Z" fill="#EDE6D6"/>
<path d="M254.343 40.2842H331.111V59.9576H277.578V91.0767H325.734V110.75H277.578V161.176H254.343V40.2842Z" fill="#F6F3EB"/>
<path d="M348.808 108.469H397.285C396.964 102.563 395.198 97.6751 392.068 93.8463C388.938 90.0175 384.444 88.1031 378.585 88.1031C371.401 88.1031 366.225 90.3026 363.014 94.7831C359.804 99.2229 358.199 106.677 358.199 117.186C358.199 127.694 359.764 134.863 362.894 139.059C366.024 143.295 371.642 145.372 379.748 145.372C385.487 145.372 389.5 144.557 391.787 142.969C394.075 141.38 395.479 139.018 395.921 135.963H419.156C418.594 141.217 416.828 145.861 413.859 149.893C410.889 153.926 406.595 157.103 400.977 159.384C395.359 161.665 388.296 162.805 379.748 162.805C365.502 162.805 354.587 158.895 347.083 151.115C339.579 143.335 335.806 132.012 335.806 117.186C335.806 102.359 339.579 90.7914 347.083 82.7265C354.587 74.7024 365.101 70.6699 378.585 70.6699C387.333 70.6699 394.757 72.5029 400.897 76.128C406.997 79.7938 411.692 85.0482 414.942 91.9319C418.193 98.8156 419.838 107.247 419.838 117.145V123.988H348.608L348.768 108.428L348.808 108.469Z" fill="#F6F3EB"/>
<path d="M469.198 162.805C458.322 162.805 449.414 158.976 442.511 151.278C435.609 143.579 432.158 132.174 432.158 117.022C432.158 106.065 433.843 97.2266 437.214 90.4652C440.585 83.7037 445.08 78.6937 450.778 75.5166C456.436 72.3395 462.576 70.751 469.198 70.751C477.946 70.751 484.969 72.7876 490.266 76.9015C495.523 81.0154 499.375 86.5142 501.703 93.4793C504.07 100.444 505.234 108.306 505.234 117.063C505.234 125.82 504.07 133.519 501.703 140.402C499.335 147.286 495.523 152.785 490.266 156.817C484.969 160.85 477.986 162.886 469.198 162.886V162.805ZM476.1 145.046C483.042 145.046 488.259 142.724 491.67 138.04C495.081 133.356 496.807 126.309 496.807 116.859C496.807 107.41 495.081 100.322 491.67 95.5974C488.259 90.8725 483.042 88.51 476.1 88.51C469.158 88.51 463.539 90.8725 460.008 95.5974C456.477 100.322 454.711 107.41 454.711 116.859C454.711 126.309 456.477 133.396 460.008 138.04C463.539 142.724 468.917 145.046 476.1 145.046ZM496.807 38.2471H519.36V161.135H496.807V38.2471Z" fill="#F6F3EB"/>
<path d="M541.592 38.2471H565.148V61.8308H541.592V38.2471ZM564.667 72.421V161.135H542.114V72.421H564.667Z" fill="#F6F3EB"/>
<path d="M577.107 72.4209H599.178L616.514 132.745H617.036L632.366 72.4209H650.906L666.396 132.419H666.917L684.093 72.4209H705.964L678.354 161.135H658.33L641.836 100.811H641.314L625.142 161.135H604.917L577.147 72.4209H577.107Z" fill="#F6F3EB"/>
<path d="M798.021 161.094H784.899C779.722 161.094 775.709 159.342 772.86 155.799C770.011 152.255 768.446 147.897 768.245 142.642H773.141C771.014 148.915 767.563 153.843 762.787 157.428C758.012 161.012 751.912 162.804 744.528 162.804C738.348 162.804 732.81 161.786 727.955 159.831C723.099 157.876 719.246 154.821 716.437 150.789C713.628 146.756 712.224 141.583 712.224 135.311C712.224 129.608 713.307 124.924 715.514 121.217C717.681 117.511 720.571 114.619 724.182 112.582C727.794 110.546 731.687 109.079 735.981 108.224C740.234 107.369 744.448 106.961 748.622 106.961H768.325V101.992C768.325 97.2263 767.161 93.6419 764.874 91.3202C762.587 88.9985 758.895 87.8173 753.838 87.8173C748.461 87.8173 744.649 88.7949 742.401 90.7092C740.154 92.6644 738.75 95.5971 738.188 99.5888H715.635C715.956 93.4383 717.922 88.1839 721.534 83.8663C725.105 79.5487 729.801 76.2495 735.499 74.05C741.197 71.8504 747.498 70.71 754.36 70.71C758.052 70.71 761.985 71.158 766.158 72.0948C770.292 72.9909 774.224 74.6609 777.876 77.0641C781.528 79.4673 784.538 82.7666 786.905 86.9619C789.273 91.198 790.437 96.6561 790.437 103.377V143.212H798.182V161.175L798.021 161.094ZM734.054 134.292C734.054 138.162 735.138 141.054 737.265 142.927C739.392 144.801 742.803 145.738 747.538 145.738C754.159 145.738 759.256 144.109 762.868 140.85C766.479 137.591 768.245 133.192 768.245 127.612V122.48H748.702C743.525 122.48 739.793 123.498 737.506 125.453C735.218 127.409 734.054 130.382 734.054 134.251V134.292Z" fill="#F6F3EB"/>
<path d="M826.433 72L845.133 130.45C845.815 132.609 846.457 134.564 847.059 136.275C847.661 137.985 848.384 139.33 849.146 140.307C849.949 141.285 850.872 141.773 851.995 141.773H864.797V159.736H848.464C844.411 159.736 841.04 159.125 838.351 157.863C835.662 156.6 833.335 154.4 831.368 151.264C829.402 148.128 827.476 143.647 825.55 137.863L804 72.0815H826.392L826.433 72ZM873.425 72H894.814L865.198 173.015C862.71 181.324 858.978 187.108 854.002 190.366C848.986 193.625 843.046 195.254 836.064 195.254H819.049V177.292H833.174C837.107 177.292 840.037 176.558 842.003 175.051C843.969 173.544 845.494 170.734 846.618 166.498L873.384 72H873.425Z" fill="#F6F3EB"/>
<path d="M963.147 51.84H962.817L941.037 113H926.187L955.007 35.23H971.287L999.997 113H984.487L963.147 51.84ZM984.157 93.97H942.357V81.32H984.157V93.97ZM1024.76 55.91V135.22H1010.02V55.91H1024.76ZM1042.91 114.1C1037.26 114.1 1032.68 112.817 1029.16 110.25C1025.71 107.61 1023.22 104.09 1021.68 99.69C1020.14 95.2167 1019.37 90.1933 1019.37 84.62C1019.37 78.9733 1020.14 73.9133 1021.68 69.44C1023.22 64.9667 1025.71 61.41 1029.16 58.77C1032.68 56.13 1037.26 54.81 1042.91 54.81C1047.31 54.81 1051.34 55.8367 1055.01 57.89C1058.68 59.9433 1061.61 63.17 1063.81 67.57C1066.01 71.8967 1067.11 77.58 1067.11 84.62C1067.11 94.3733 1064.87 101.743 1060.4 106.73C1055.93 111.643 1050.1 114.1 1042.91 114.1ZM1038.4 102.66C1043.09 102.66 1046.58 101.157 1048.85 98.15C1051.2 95.1433 1052.37 90.5967 1052.37 84.51C1052.37 78.4233 1051.2 73.8767 1048.85 70.87C1046.58 67.79 1043.09 66.25 1038.4 66.25C1033.85 66.25 1030.44 67.79 1028.17 70.87C1025.9 73.8767 1024.76 78.4233 1024.76 84.51C1024.76 90.5967 1025.9 95.1433 1028.17 98.15C1030.44 101.157 1033.85 102.66 1038.4 102.66ZM1094.26 55.91V135.22H1079.52V55.91H1094.26ZM1112.41 114.1C1106.77 114.1 1102.18 112.817 1098.66 110.25C1095.22 107.61 1092.72 104.09 1091.18 99.69C1089.64 95.2167 1088.87 90.1933 1088.87 84.62C1088.87 78.9733 1089.64 73.9133 1091.18 69.44C1092.72 64.9667 1095.22 61.41 1098.66 58.77C1102.18 56.13 1106.77 54.81 1112.41 54.81C1116.81 54.81 1120.85 55.8367 1124.51 57.89C1128.18 59.9433 1131.11 63.17 1133.31 67.57C1135.51 71.8967 1136.61 77.58 1136.61 84.62C1136.61 94.3733 1134.38 101.743 1129.9 106.73C1125.43 111.643 1119.6 114.1 1112.41 114.1ZM1107.9 102.66C1112.6 102.66 1116.08 101.157 1118.35 98.15C1120.7 95.1433 1121.87 90.5967 1121.87 84.51C1121.87 78.4233 1120.7 73.8767 1118.35 70.87C1116.08 67.79 1112.6 66.25 1107.9 66.25C1103.36 66.25 1099.95 67.79 1097.67 70.87C1095.4 73.8767 1094.26 78.4233 1094.26 84.51C1094.26 90.5967 1095.4 95.1433 1097.67 98.15C1099.95 101.157 1103.36 102.66 1107.9 102.66Z" fill="#F6F3EB"/>
</svg>
